<svg width="800" height="450" viewBox="0 0 800 450" xmlns="http://www.w3.org/2000/svg">
  <rect width="800" height="450" rx="12" fill="#1e293b"/>
  
  <!-- Barre supérieure -->
  <rect x="0" y="0" width="800" height="40" fill="#0f172a"/>
  <circle cx="20" cy="20" r="5" fill="#ef4444"/>
  <circle cx="40" cy="20" r="5" fill="#facc15"/>
  <circle cx="60" cy="20" r="5" fill="#22c55e"/>
  
  <!-- Menu latéral -->
  <rect x="0" y="40" width="150" height="410" fill="#111827"/>
  <rect x="20" y="60" width="110" height="20" rx="4" fill="#334155"/>
  <rect x="20" y="100" width="90" height="15" rx="4" fill="#334155"/>
  <rect x="20" y="130" width="70" height="15" rx="4" fill="#334155"/>
  <rect x="20" y="160" width="100" height="15" rx="4" fill="#334155"/>
  
  <!-- KPI Cards -->
  <rect x="170" y="60" width="180" height="70" rx="8" fill="#0f172a"/>
  <rect x="370" y="60" width="180" height="70" rx="8" fill="#0f172a"/>
  <rect x="570" y="60" width="180" height="70" rx="8" fill="#0f172a"/>
  
  <text x="190" y="85" fill="#94a3b8" font-size="12">CA mensuel</text>
  <text x="190" y="105" fill="#38bdf8" font-size="20" font-weight="bold">+15%</text>
  
  <text x="390" y="85" fill="#94a3b8" font-size="12">Commandes</text>
  <text x="390" y="105" fill="#38bdf8" font-size="20" font-weight="bold">248</text>
  
  <text x="590" y="85" fill="#94a3b8" font-size="12">Taux d'erreur</text>
  <text x="590" y="105" fill="#38bdf8" font-size="20" font-weight="bold">0.8%</text>
  
  <!-- Graphique à barres -->
  <rect x="170" y="160" width="580" height="120" rx="8" fill="#0f172a"/>
  <rect x="200" y="200" width="20" height="50" fill="#38bdf8"/>
  <rect x="240" y="180" width="20" height="70" fill="#38bdf8"/>
  <rect x="280" y="210" width="20" height="40" fill="#38bdf8"/>
  <rect x="320" y="160" width="20" height="90" fill="#38bdf8"/>
  <rect x="360" y="190" width="20" height="60" fill="#38bdf8"/>
  
  <!-- Graphique en ligne -->
  <rect x="170" y="300" width="580" height="120" rx="8" fill="#0f172a"/>
  <polyline points="190,380 250,350 310,370 370,340 430,360 490,330 550,350 610,320" 
            fill="none" stroke="#38bdf8" stroke-width="2"/>
  <circle cx="190" cy="380" r="3" fill="#38bdf8"/>
  <circle cx="250" cy="350" r="3" fill="#38bdf8"/>
  <circle cx="310" cy="370" r="3" fill="#38bdf8"/>
  <circle cx="370" cy="340" r="3" fill="#38bdf8"/>
  <circle cx="430" cy="360" r="3" fill="#38bdf8"/>
  <circle cx="490" cy="330" r="3" fill="#38bdf8"/>
  <circle cx="550" cy="350" r="3" fill="#38bdf8"/>
  <circle cx="610" cy="320" r="3" fill="#38bdf8"/>
</svg>
